<svg xmlns="http://www.w3.org/2000/svg" viewBox="0 0 71 71"><defs><style>.cls-1{fill:none;stroke:#9e9e9e;stroke-miterlimit:10;}.cls-2{fill:#333;}.cls-3{fill:#40c2d5;}</style></defs><title>Asset 8</title><g id="Layer_2" data-name="Layer 2"><g id="Layer_1-2" data-name="Layer 1"><circle class="cls-1" cx="35.5" cy="35.5" r="35"/><path class="cls-2" d="M23.49,18.77V20a2.57,2.57,0,0,1,2.44-1.33,3,3,0,0,1,1.58.42,2.52,2.52,0,0,1,1,1.23,2.75,2.75,0,0,1,1.09-1.22,3,3,0,0,1,1.63-.43,2.85,2.85,0,0,1,2.05.8,3.1,3.1,0,0,1,.82,2.32v4.39H33.2V21.93a2.65,2.65,0,0,0-.59-1.85,2.07,2.07,0,0,0-1.6-.63,2.09,2.09,0,0,0-1.61.63,2.65,2.65,0,0,0-.59,1.85v4.22h-.93V21.93a2.65,2.65,0,0,0-.59-1.85,2.37,2.37,0,0,0-3.22,0,2.65,2.65,0,0,0-.58,1.85v4.22h-.95V18.77Z"/><path class="cls-2" d="M39.67,26.28a3.36,3.36,0,0,1-2.57-1.05,3.89,3.89,0,0,1-1-2.78,3.85,3.85,0,0,1,1-2.77,3.48,3.48,0,0,1,2.61-1,3.38,3.38,0,0,1,2.54,1,3.42,3.42,0,0,1,.95,2.45,4.23,4.23,0,0,1-.06.73H37.08a3,3,0,0,0,.77,2,2.48,2.48,0,0,0,1.82.73,2.62,2.62,0,0,0,1.45-.39,2.13,2.13,0,0,0,.83-1h1a3.32,3.32,0,0,1-3.29,2.17Zm2.58-4.23a2.58,2.58,0,0,0-.74-1.93,2.65,2.65,0,0,0-3.63,0,2.86,2.86,0,0,0-.8,1.95Z"/><path class="cls-2" d="M46.18,18.77V20a2.26,2.26,0,0,1,2.28-1.35v1h-.27a2,2,0,0,0-1.49.53A2.51,2.51,0,0,0,46.18,22v4.19h-1V18.77Z"/><path class="cls-2" d="M22,42.23v3.82a2.59,2.59,0,0,1,2.45-1.33,2.8,2.8,0,0,1,2.05.8,3.1,3.1,0,0,1,.83,2.32v4.39h-.93V48a2.65,2.65,0,0,0-.59-1.85,2.37,2.37,0,0,0-3.22,0A2.65,2.65,0,0,0,22,48v4.22H21.1v-10Z"/><path class="cls-2" d="M30.54,51.27a4,4,0,0,1-1-2.79,3.71,3.71,0,0,1,1-2.73,3.41,3.41,0,0,1,2.56-1,3.19,3.19,0,0,1,1.75.48A3,3,0,0,1,36,46.46V44.85h1v7.38H36V50.61a3,3,0,0,1-1.12,1.26,3.12,3.12,0,0,1-1.75.49A3.34,3.34,0,0,1,30.54,51.27Zm4.63-.55a3.37,3.37,0,0,0,0-4.36,2.58,2.58,0,0,0-1.94-.83,2.62,2.62,0,0,0-1.93.79,2.94,2.94,0,0,0-.8,2.16,3.09,3.09,0,0,0,.81,2.21,2.52,2.52,0,0,0,1.93.86A2.57,2.57,0,0,0,35.17,50.72Z"/><path class="cls-2" d="M39.62,52.23v-10h1v10Z"/><path class="cls-2" d="M46.35,52.36a3.36,3.36,0,0,1-2.57-1,3.89,3.89,0,0,1-1-2.78,3.83,3.83,0,0,1,1-2.77,3.48,3.48,0,0,1,2.61-1,3.29,3.29,0,0,1,3.49,3.43,5.58,5.58,0,0,1,0,.73H43.77a2.9,2.9,0,0,0,.77,2,2.46,2.46,0,0,0,1.81.73,2.52,2.52,0,0,0,1.45-.4,2,2,0,0,0,.83-1h1a3.5,3.5,0,0,1-1.18,1.56A3.45,3.45,0,0,1,46.35,52.36Zm2.58-4.23a2.58,2.58,0,0,0-.74-1.93,2.65,2.65,0,0,0-3.63,0,2.85,2.85,0,0,0-.79,2Z"/><path class="cls-3" d="M18.52,39.39v1H18.1a3.48,3.48,0,0,1-2.2-.49,2.55,2.55,0,0,1-.56-1.94V36.59a1.94,1.94,0,0,0-.4-1.24,1.49,1.49,0,0,0-1.26-.52h-.8v-.95h.8a1.61,1.61,0,0,0,1.3-.44,2,2,0,0,0,.36-1.3V30.43a2.58,2.58,0,0,1,.56-1.95A3.56,3.56,0,0,1,18.1,28h.42v.94h-.46a1.75,1.75,0,0,0-1.2.29,1.82,1.82,0,0,0-.28,1.22v1.77a2,2,0,0,1-.46,1.56,3.5,3.5,0,0,1-1.77.58,3.2,3.2,0,0,1,1.75.58,2,2,0,0,1,.48,1.56v1.38a1.83,1.83,0,0,0,.28,1.23,1.76,1.76,0,0,0,1.2.28Z"/><path class="cls-3" d="M27.24,34.75v.6H22v0a2.91,2.91,0,0,0,.58,2.17,2.33,2.33,0,0,0,1.77.66A4.48,4.48,0,0,0,25.55,38a7.33,7.33,0,0,0,1.35-.56v1.21a7.61,7.61,0,0,1-1.34.42,5.38,5.38,0,0,1-1.24.15,3.51,3.51,0,0,1-2.69-1,4,4,0,0,1-1-2.84,4.1,4.1,0,0,1,.95-2.83,3.25,3.25,0,0,1,2.53-1.05,2.79,2.79,0,0,1,2.23.95A3.73,3.73,0,0,1,27.24,34.75ZM26,34.4a2.44,2.44,0,0,0-.55-1.33,1.72,1.72,0,0,0-1.38-.55,1.91,1.91,0,0,0-1.44.58A2,2,0,0,0,22,34.4Z"/><path class="cls-3" d="M33.3,32.61V28.79h1.22V39.05H33.3v-.93a2.09,2.09,0,0,1-.8.84,2.36,2.36,0,0,1-1.17.29,2.5,2.5,0,0,1-2.11-1,4.77,4.77,0,0,1-.76-2.87,4.59,4.59,0,0,1,.77-2.83,2.48,2.48,0,0,1,2.1-1,2.37,2.37,0,0,1,1.18.28A2,2,0,0,1,33.3,32.61Zm-3.56,2.76a4.18,4.18,0,0,0,.44,2.13,1.48,1.48,0,0,0,1.33.72,1.5,1.5,0,0,0,1.34-.73,4.05,4.05,0,0,0,.45-2.12,4.07,4.07,0,0,0-.45-2.13,1.49,1.49,0,0,0-1.34-.72,1.48,1.48,0,0,0-1.33.72A4.18,4.18,0,0,0,29.74,35.37Z"/><path class="cls-3" d="M37.53,31.69h3.1v6.42H43v.94H37v-.94h2.41V32.64H37.53Zm1.89-2.87h1.21v1.53H39.42Z"/><path class="cls-3" d="M47.29,29.57v2.1H50v.94H47.29v4a1.6,1.6,0,0,0,.31,1.14,1.42,1.42,0,0,0,1.08.32H50v1H48.56a2.77,2.77,0,0,1-1.93-.54,2.62,2.62,0,0,1-.56-1.89v-4h-2v-.94h2v-2.1Z"/><path class="cls-3" d="M52.94,39.39a1.76,1.76,0,0,0,1.2-.28,1.83,1.83,0,0,0,.28-1.23V36.5a2,2,0,0,1,.48-1.56,3.2,3.2,0,0,1,1.75-.58,3.5,3.5,0,0,1-1.77-.58,2,2,0,0,1-.46-1.56V30.45a1.82,1.82,0,0,0-.28-1.22,1.75,1.75,0,0,0-1.2-.29h-.46V28h.42a3.56,3.56,0,0,1,2.2.48,2.58,2.58,0,0,1,.56,1.95v1.71a2,2,0,0,0,.36,1.3,1.61,1.61,0,0,0,1.3.44h.8v.95h-.8a1.49,1.49,0,0,0-1.26.52,1.94,1.94,0,0,0-.4,1.24v1.32a2.55,2.55,0,0,1-.56,1.94,3.48,3.48,0,0,1-2.2.49h-.42v-1Z"/></g></g></svg>